<mxfile host="app.diagrams.net" modified="2024-10-30T01:01:08.525Z" agent="Mozilla/5.0 (Windows NT 10.0; Win64; x64) AppleWebKit/537.36 (KHTML, like Gecko) Chrome/129.0.0.0 Safari/537.36" etag="U553EtAm1OCCX6en8BGB" version="24.6.4" type="github">
  <diagram id="prtHgNgQTEPvFCAcTncT" name="Page-1">
    <mxGraphModel dx="1434" dy="746" grid="1" gridSize="10" guides="1" tooltips="1" connect="1" arrows="1" fold="1" page="1" pageScale="1" pageWidth="827" pageHeight="1169" math="0" shadow="0">
      <root>
        <mxCell id="0" />
        <mxCell id="1" parent="0" />
        <mxCell id="i-2QpKQ5pJ6gFct8JS3w-2" value="工厂系统" style="swimlane;whiteSpace=wrap;html=1;" vertex="1" parent="1">
          <mxGeometry x="150" y="80" width="200" height="540" as="geometry" />
        </mxCell>
        <mxCell id="i-2QpKQ5pJ6gFct8JS3w-15" style="edgeStyle=orthogonalEdgeStyle;rounded=0;orthogonalLoop=1;jettySize=auto;html=1;exitX=0.5;exitY=1;exitDx=0;exitDy=0;entryX=0.5;entryY=0;entryDx=0;entryDy=0;" edge="1" parent="i-2QpKQ5pJ6gFct8JS3w-2" source="i-2QpKQ5pJ6gFct8JS3w-5" target="i-2QpKQ5pJ6gFct8JS3w-7">
          <mxGeometry relative="1" as="geometry" />
        </mxCell>
        <mxCell id="i-2QpKQ5pJ6gFct8JS3w-5" value="发货" style="rounded=0;whiteSpace=wrap;html=1;" vertex="1" parent="i-2QpKQ5pJ6gFct8JS3w-2">
          <mxGeometry x="40" y="80" width="120" height="60" as="geometry" />
        </mxCell>
        <mxCell id="i-2QpKQ5pJ6gFct8JS3w-7" value="创建发货批次&lt;div&gt;创建发货明细表&lt;/div&gt;&lt;div&gt;推送数据到生产系统&lt;/div&gt;" style="shape=process;whiteSpace=wrap;html=1;backgroundOutline=1;" vertex="1" parent="i-2QpKQ5pJ6gFct8JS3w-2">
          <mxGeometry x="40" y="170" width="120" height="60" as="geometry" />
        </mxCell>
        <mxCell id="i-2QpKQ5pJ6gFct8JS3w-3" value="生产系统" style="swimlane;whiteSpace=wrap;html=1;startSize=23;" vertex="1" parent="1">
          <mxGeometry x="350" y="80" width="200" height="540" as="geometry" />
        </mxCell>
        <mxCell id="i-2QpKQ5pJ6gFct8JS3w-8" value="写入发货记录表&lt;div&gt;写入发货明细表&lt;/div&gt;&lt;div&gt;推送数到仓库系统&lt;/div&gt;" style="rounded=0;whiteSpace=wrap;html=1;" vertex="1" parent="i-2QpKQ5pJ6gFct8JS3w-3">
          <mxGeometry x="40" y="270" width="120" height="60" as="geometry" />
        </mxCell>
        <mxCell id="i-2QpKQ5pJ6gFct8JS3w-4" value="仓库系统" style="swimlane;whiteSpace=wrap;html=1;" vertex="1" parent="1">
          <mxGeometry x="550" y="80" width="200" height="540" as="geometry">
            <mxRectangle x="550" y="80" width="90" height="30" as="alternateBounds" />
          </mxGeometry>
        </mxCell>
        <mxCell id="i-2QpKQ5pJ6gFct8JS3w-9" value="创建发货批次等记录" style="rounded=0;whiteSpace=wrap;html=1;" vertex="1" parent="i-2QpKQ5pJ6gFct8JS3w-4">
          <mxGeometry x="50" y="370" width="120" height="60" as="geometry" />
        </mxCell>
        <mxCell id="i-2QpKQ5pJ6gFct8JS3w-10" style="edgeStyle=orthogonalEdgeStyle;rounded=0;orthogonalLoop=1;jettySize=auto;html=1;exitX=0.5;exitY=1;exitDx=0;exitDy=0;entryX=0;entryY=0.5;entryDx=0;entryDy=0;" edge="1" parent="1" source="i-2QpKQ5pJ6gFct8JS3w-8" target="i-2QpKQ5pJ6gFct8JS3w-9">
          <mxGeometry relative="1" as="geometry" />
        </mxCell>
        <mxCell id="i-2QpKQ5pJ6gFct8JS3w-14" value="RPC:&amp;nbsp;stockUpDeliveryDispatched" style="edgeLabel;html=1;align=center;verticalAlign=middle;resizable=0;points=[];" vertex="1" connectable="0" parent="i-2QpKQ5pJ6gFct8JS3w-10">
          <mxGeometry x="0.2364" y="-1" relative="1" as="geometry">
            <mxPoint x="-17" y="-15" as="offset" />
          </mxGeometry>
        </mxCell>
        <mxCell id="i-2QpKQ5pJ6gFct8JS3w-11" style="edgeStyle=orthogonalEdgeStyle;rounded=0;orthogonalLoop=1;jettySize=auto;html=1;exitX=0.5;exitY=1;exitDx=0;exitDy=0;entryX=0;entryY=0.5;entryDx=0;entryDy=0;" edge="1" parent="1" source="i-2QpKQ5pJ6gFct8JS3w-7" target="i-2QpKQ5pJ6gFct8JS3w-8">
          <mxGeometry relative="1" as="geometry" />
        </mxCell>
        <mxCell id="i-2QpKQ5pJ6gFct8JS3w-12" value="MQ：factory-production-delivery" style="edgeLabel;html=1;align=center;verticalAlign=middle;resizable=0;points=[];" vertex="1" connectable="0" parent="i-2QpKQ5pJ6gFct8JS3w-11">
          <mxGeometry x="0.019" y="-1" relative="1" as="geometry">
            <mxPoint x="13" y="-21" as="offset" />
          </mxGeometry>
        </mxCell>
      </root>
    </mxGraphModel>
  </diagram>
</mxfile>
